<svg xmlns="http://www.w3.org/2000/svg" viewBox="0 0 10 12" width="10" height="12">
	<style>
		tspan { white-space:pre }
		.shp0 { fill: #33c7fd } 
	</style>
	<g id="1">
		<g id="меню">
			<path id="Р" class="shp0" d="M4.08 11.98L4.08 6.97L6.63 6.97C7.13 6.97 7.59 6.86 8 6.63C8.42 6.41 8.77 6.11 9.06 5.74C9.36 5.37 9.58 4.95 9.75 4.47C9.91 3.99 9.99 3.5 9.99 2.99C9.99 2.51 9.9 3.03 9.73 2.55C9.56 2.08 9.32 1.65 9.02 1.27C8.71 0.9 8.35 0.59 7.93 0.36C7.51 0.13 7.05 0.02 6.56 0.02L1.99 0.02L1.99 11.98L4.08 11.98ZM4.08 2.06L6.42 2.06C6.6 2.06 6.78 2.1 6.96 2.18C7.14 2.27 7.29 2.39 7.42 2.56C7.55 2.73 7.66 1.94 7.74 2.18C7.82 2.42 7.86 2.69 7.86 2.99C7.86 3.59 7.73 4.06 7.48 4.41C7.22 4.76 6.9 4.93 6.51 4.93L4.08 4.93L4.08 2.06ZM0 5L4 5L4 7L0 7L0 5ZM0 8L8 8L8 10L0 10L0 8Z" />
		</g>
	</g>
</svg>